<?xml version="1.0" encoding="UTF-8" standalone="no"?>
<svg xmlns:rdf="http://www.w3.org/1999/02/22-rdf-syntax-ns#" xmlns="http://www.w3.org/2000/svg" height="136.43" width="580.31" version="1.1" xmlns:cc="http://creativecommons.org/ns#" xmlns:dc="http://purl.org/dc/elements/1.1/" viewBox="0 0 580.31085 136.43338">
 <metadata>
  <rdf:RDF>
   <cc:Work rdf:about="">
    <dc:format>image/svg+xml</dc:format>
    <dc:type rdf:resource="http://purl.org/dc/dcmitype/StillImage"/>
    <dc:title/>
   </cc:Work>
  </rdf:RDF>
 </metadata>
 <g fill="none" transform="translate(-30 -45.283)">
  <path fill="#fff" d="m106.92 171.31c0 0.54 0.62 0.543 0.731 0 0.824-3.998 2.075-6.663 4.03-9.25l-4.397 0.003c-0.201 0-0.364 0.162-0.364 0.363zm31.611-55.503c0.05 5.78-1.61 10.747-12.15 21.297l-8.336 8.338c-3.794 3.797-7.205 7.264-9.222 10.73h8.233l0.974-0.975 11.96-11.984c9.96-9.97 11.349-20.516 9.223-27.395-0.181-0.584-0.687-0.623-0.682-0.01zm-10.496 35.265-9.99 10.008c-6.047 6.053-11.125 11.269-11.125 16.973l0.006 1.588c0 0.43 0.536 0.499 0.7 0.048 1.868-5.107 8.106-10.557 19.548-8.625 0 0 49.849 8.622 50.267 8.659 0.487 0.043 0.728-0.437 0.414-0.81-0.189-0.225-23.2-23.258-23.2-23.258zm-36.062 10.988a0.364 0.364 0 0 1 -0.364 -0.364v-5.163c0-0.202 0.163-0.364 0.364-0.364l8.724 0.002c0.201 0 0.364-0.163 0.364-0.364-0.023-4.637-3.515-7.788-17.508-5.35l-30.215 5.198s-23.012 23.033-23.2 23.258c-0.315 0.373-0.074 0.853 0.413 0.81 0.42-0.037 50.267-8.66 50.267-8.66 11.443-1.931 17.681 3.52 19.548 8.626 0.164 0.45 0.701 0.383 0.701-0.048l0.001-17.218c0-0.2-0.163-0.363-0.364-0.363zm-13.919-72.167c-9.96 9.969-11.349 20.516-9.222 27.395 0.18 0.584 0.686 0.623 0.68 0.01-0.05-5.78 1.612-10.746 12.151-21.296l22.721-22.735c6.047-6.054 11.125-11.27 11.125-16.973v-8.897c0-0.542-0.62-0.544-0.732 0-1.494 7.26-4.395 10.125-10.378 16.113l-26.34 26.382zm37.481-26.933c0-0.54-0.62-0.543-0.732 0-1.494 7.261-4.388 10.17-10.37 16.16l-23.87 23.86c-11.58 11.592-13.584 22.81-7.694 30.02 0.393 0.481 0.815 0.192 0.56-0.388-3.895-8.819 5.443-18.17 9.889-22.62l21.085-21.1c6.047-6.053 11.125-11.269 11.125-16.973zm-34.311 55.008c-11.581 11.592-6.256 22.787 0.5 25.87 0.592 0.27 0.828-0.211 0.374-0.603-5.416-4.699-3.772-12.6 3.04-19.418l19.248-19.267c6.047-6.053 11.124-11.268 11.124-16.972v-8.896c0-0.54-0.62-0.543-0.73 0-1.495 7.259-4.39 10.112-10.373 16.1zm25.688 37.771c0 0.541 0.62 0.543 0.73 0 1.496-7.259 4.39-10.17 10.372-16.158l9.479-9.468c11.58-11.59 13.583-22.809 7.693-30.018-0.393-0.481-0.815-0.193-0.558 0.387 3.893 8.819-5.444 18.169-9.89 22.62l-6.701 6.709c-6.048 6.052-11.125 11.267-11.125 16.971zm11.128-31.822c-5.983 5.988-8.879 8.841-10.373 16.101-0.112 0.544-0.731 0.542-0.731 0v-8.896c0-5.703 5.077-10.92 11.125-16.972l4.862-4.868c6.813-6.82 8.457-14.719 3.04-19.418-0.453-0.392-0.217-0.874 0.376-0.603 6.755 3.082 12.08 14.277 0.498 25.87zm56.364 39.421c0.496 0 0.792-0.277 0.792-0.678 0-0.447-0.248-0.64-0.801-0.64h-0.468v1.318zm-1.2-1.927h1.22c1.039 0 1.506 0.41 1.506 1.231 0 0.6-0.363 0.934-0.744 1.087l1.107 1.85h-0.82l-0.955-1.65h-0.59v1.65h-0.725v-4.168zm4.262 2.079c0-1.65-1.231-2.995-2.957-2.995s-2.966 1.25-2.966 2.995c0 1.65 1.24 2.995 2.966 2.995 1.632 0 2.957-1.25 2.957-2.995zm-6.457 0c0-2.03 1.47-3.5 3.5-3.5 1.936 0 3.5 1.47 3.5 3.5 0 2.032-1.468 3.5-3.5 3.5-2.03 0-3.5-1.468-3.5-3.5z"/>
 </g>
 <text style="word-spacing:0px;letter-spacing:0px" xml:space="preserve" font-size="40px" line-height="1.25" y="32.682667" x="176.83749" font-family="sans-serif" fill="#ffffff"><g font-family="&apos;Advent Sans&apos;" fill="#ffffff"><tspan font-size="42.667px" y="32.682667" x="176.83749">Kościół Adwentystów</tspan><tspan font-size="42.667px" y="86.113388" x="176.83749">Dnia Siódmego</tspan><tspan font-size="32px" y="136.11337" x="176.83749">Zbór w Sosnowcu</tspan></g></text>
</svg>
