<svg xmlns="http://www.w3.org/2000/svg" viewBox="0 0 1054.74 227.62735" version="1.1" id="svg885" width="1054.74" height="227.627"><title id="title881">Seventh-day Adventist Church</title><path d="M67.677 120.375c-.1-9.9 2.8-18.4 20.8-36.4l39-39c10.4-10.4 19.1-19.3 19.1-29V.675c0-.9-1.1-.9-1.2 0-2.6 12.4-7.5 17.3-17.8 27.6l-45.3 45.2c-17.1 17-19.5 35.1-15.8 46.9.3 1 1.2 1.1 1.2 0zm64.2 38.9c0 .9 1 .9 1.2 0 2.6-12.5 7.6-17.4 17.8-27.6l15.1-14.9c19.8-19.9 10.7-39-.9-44.3-1-.5-1.4.3-.6 1 9.3 8 6.5 21.5-5.2 33.2l-8.3 8.3c-10.4 10.3-19.1 19.2-19.1 29zm81.8 26.6l-45.7-7.7-17.1 17.1c-10.4 10.4-19 19.3-19 29v2.7c0 .7.9.9 1.2.1 3.2-8.7 13.9-18.1 33.5-14.8 0 0 85.4 14.8 86.1 14.8a.89.89 0 0 0 1-.6.78.78 0 0 0-.2-.8c-.3-.4-39.8-39.8-39.8-39.8zm-107.5 1h15a.65.65 0 0 0 .6-.6c0-7.9-6-13.3-30-9.2l-51.8 8.9s-39.4 39.4-39.7 39.8a.79.79 0 0 0-.1 1.1.78.78 0 0 0 .8.2c.7-.1 86.1-14.8 86.1-14.8 19.6-3.3 30.3 6 33.5 14.8.3.8 1.2.7 1.2-.1v-29.5a.65.65 0 0 0-.6-.6l-15 .1a.65.65 0 0 1-.6-.6v-8.9a.65.65 0 0 1 .6-.6zm26.8 25.9a36.27 36.27 0 0 1 6.9-15.8h-7.5a.65.65 0 0 0-.6.6v15.2c0 .9 1.1.9 1.2 0zm13.6-158.6c0-.9-1.1-.9-1.2 0-2.6 12.4-7.5 17.3-17.8 27.6l-39.8 39.7c-19.8 19.8-10.7 39 .9 44.3 1 .5 1.4-.4.6-1-9.3-8-6.5-21.6 5.2-33.2l33-33c10.4-10.4 19.1-19.3 19.1-29zm-19.1 17.5c10.4-10.3 19-19.2 19.1-29v-15.4c0-.9-1.1-.9-1.2 0-2.6 12.4-7.5 17.4-17.8 27.7l-40.9 40.8c-19.8 19.8-23.3 39-13.2 51.4.7.8 1.4.3 1-.7-6.7-15.1 9.3-31.1 16.9-38.7zm37.6 82.5l-14.3 14.2c-6.5 6.5-12.3 12.4-15.8 18.4h14.1l1.7-1.7 20.5-20.5c17.1-16.9 19.5-35 15.8-46.8-.3-1-1.2-1.1-1.2 0 .1 9.9-2.8 18.4-20.8 36.4zm-2.8-24l-11.4 11.5c-10.4 10.4-19.1 19.4-19.1 29.1v15.3c0 .9 1.1.9 1.2 0 2.6-12.4 7.5-17.4 17.8-27.7l16.2-16.2c19.8-19.8 23.3-39 13.2-51.4-.7-.8-1.4-.3-1 .7 6.7 15.1-9.3 31.1-16.9 38.7zm83.5 68.2h1.1l1.7 3h1.5l-2-3.3a2 2 0 0 0 1.3-2c0-1.5-.8-2.2-2.7-2.2h-2.2v7.5h1.3zm0-3.5h.8c1 0 1.4.3 1.4 1.2 0 .7-.5 1.2-1.4 1.2h-.9v-2.4zm1 9c5.614 0 8.424-6.786 4.455-10.755-3.97-3.968-10.755-1.158-10.755 4.455a6.09 6.09 0 0 0 6.3 6.3zm0-11.7a5.4 5.4 0 1 1 0 10.8 5.32 5.32 0 0 1-5.4-5.4 5.26 5.26 0 0 1 5.4-5.4z" id="path883" fill="#fff"/><g id="g914" transform="translate(-.023 15.379)" font-style="normal" font-weight="400" font-size="40" letter-spacing="0" word-spacing="0" font-family="sans-serif" fill="#fff" fill-opacity="1" stroke="none"><text id="text897" y="66.689" x="275.391" style="line-height:1.25" xml:space="preserve"><tspan style="line-height:1;-inkscape-font-specification:'Advent Sans'" y="66.689" x="275.391" id="tspan895" font-style="normal" font-variant="normal" font-weight="400" font-stretch="normal" font-size="74.667" font-family="Advent Sans" fill="#fff">Kościół Adwentystów</tspan><tspan style="line-height:1;-inkscape-font-specification:'Advent Sans'" id="tspan899" y="141.356" x="275.391" font-style="normal" font-variant="normal" font-weight="400" font-stretch="normal" font-size="74.667" font-family="Advent Sans" fill="#fff">Dnia Siódmego</tspan></text><text id="text905" y="186.696" x="279.825" style="line-height:1.25" xml:space="preserve"><tspan y="186.696" x="279.825" id="tspan903" font-size="48" fill="#fff">zbór w Sosnowcu</tspan></text></g></svg>