<?xml version="1.0" encoding="UTF-8" standalone="no"?>
<svg
   xmlns:dc="http://purl.org/dc/elements/1.1/"
   xmlns:cc="http://creativecommons.org/ns#"
   xmlns:rdf="http://www.w3.org/1999/02/22-rdf-syntax-ns#"
   xmlns:svg="http://www.w3.org/2000/svg"
   xmlns="http://www.w3.org/2000/svg"
   xmlns:sodipodi="http://sodipodi.sourceforge.net/DTD/sodipodi-0.dtd"
   xmlns:inkscape="http://www.inkscape.org/namespaces/inkscape"
   viewBox="0 0 981.44694 227.62733"
   version="1.1"
   id="svg885"
   sodipodi:docname="sda-logo--horiz.svg"
   width="981.44696"
   height="227.62733"
   inkscape:version="0.92.2 (5c3e80d, 2017-08-06)">
  <metadata
     id="metadata891">
    <rdf:RDF>
      <cc:Work
         rdf:about="">
        <dc:format>image/svg+xml</dc:format>
        <dc:type
           rdf:resource="http://purl.org/dc/dcmitype/StillImage" />
        <dc:title>Seventh-day Adventist Church</dc:title>
      </cc:Work>
    </rdf:RDF>
  </metadata>
  <defs
     id="defs889" />
  <sodipodi:namedview
     pagecolor="#ffffff"
     bordercolor="#666666"
     borderopacity="1"
     objecttolerance="10"
     gridtolerance="10"
     guidetolerance="10"
     inkscape:pageopacity="0"
     inkscape:pageshadow="2"
     inkscape:window-width="2493"
     inkscape:window-height="1385"
     id="namedview887"
     showgrid="false"
     fit-margin-top="0"
     fit-margin-left="0"
     fit-margin-right="0"
     fit-margin-bottom="0"
     inkscape:zoom="0.8117525"
     inkscape:cx="680.13424"
     inkscape:cy="263.37311"
     inkscape:window-x="67"
     inkscape:window-y="27"
     inkscape:window-maximized="1"
     inkscape:current-layer="svg885" />
  <title
     id="title881">Seventh-day Adventist Church</title>
  <path
     d="m 67.677449,120.375 c -0.1,-9.9 2.8,-18.4 20.8,-36.4 l 39.000001,-39 c 10.4,-10.4 19.1,-19.3 19.1,-29 v -15.3 c 0,-0.9 -1.1,-0.9 -1.2,0 -2.6,12.4 -7.5,17.3 -17.8,27.6 l -45.300001,45.2 c -17.1,17 -19.5,35.1 -15.8,46.9 0.3,1 1.2,1.1 1.2,0 z m 64.200001,38.9 c 0,0.9 1,0.9 1.2,0 2.6,-12.5 7.6,-17.4 17.8,-27.6 l 15.1,-14.9 c 19.8,-19.9 10.7,-39 -0.9,-44.3 -1,-0.5 -1.4,0.3 -0.6,1 9.3,8 6.5,21.5 -5.2,33.2 l -8.3,8.3 c -10.4,10.3 -19.1,19.2 -19.1,29 z m 81.8,26.6 -45.7,-7.7 -17.1,17.1 c -10.4,10.4 -19,19.3 -19,29 v 2.7 c 0,0.7 0.9,0.9 1.2,0.1 3.2,-8.7 13.9,-18.1 33.5,-14.8 0,0 85.4,14.8 86.1,14.8 0.43619,0.0767 0.86238,-0.17905 1,-0.6 0.0913,-0.28299 0.0137,-0.59325 -0.2,-0.8 -0.3,-0.4 -39.8,-39.8 -39.8,-39.8 z m -107.5,1 h 15 c 0.32096,-0.0239 0.57613,-0.27904 0.6,-0.6 0,-7.9 -6,-13.3 -30.000001,-9.2 l -51.8,8.9 c 0,0 -39.39999984,39.4 -39.69999984,39.8 -0.32670997,0.27857 -0.37111976,0.76708 -0.1,1.1 0.20674785,0.2137 0.51701047,0.29127 0.8,0.2 0.70000004,-0.1 86.09999984,-14.8 86.09999984,-14.8 19.600001,-3.3 30.300001,6 33.500001,14.8 0.3,0.8 1.2,0.7 1.2,-0.1 v -29.5 c -0.0239,-0.32096 -0.27904,-0.57613 -0.6,-0.6 l -15,0.1 c -0.32096,-0.0239 -0.57613,-0.27904 -0.6,-0.6 v -8.9 c 0.0239,-0.32096 0.27904,-0.57613 0.6,-0.6 z m 26.8,25.9 c 0.99662,-5.74471 3.36348,-11.16449 6.9,-15.8 h -7.5 c -0.32096,0.0239 -0.57613,0.27904 -0.6,0.6 v 15.2 c 0,0.9 1.1,0.9 1.2,0 z m 13.6,-158.6 c 0,-0.9 -1.1,-0.9 -1.2,0 -2.6,12.4 -7.5,17.3 -17.8,27.6 l -39.800001,39.7 c -19.8,19.8 -10.7,39 0.9,44.3 1,0.5 1.4,-0.4 0.6,-1 -9.3,-8 -6.5,-21.6 5.2,-33.2 l 33.000001,-33 c 10.4,-10.4 19.1,-19.3 19.1,-29 z m -19.1,17.5 c 10.4,-10.3 19,-19.2 19.1,-29 v -15.4 c 0,-0.9 -1.1,-0.9 -1.2,0 -2.6,12.4 -7.5,17.4 -17.8,27.7 l -40.900001,40.8 c -19.8,19.8 -23.3,39 -13.2,51.4 0.7,0.8 1.4,0.3 1,-0.7 -6.7,-15.1 9.3,-31.1 16.9,-38.7 z m 37.6,82.5 -14.3,14.2 c -6.5,6.5 -12.3,12.4 -15.8,18.4 h 14.1 l 1.7,-1.7 20.5,-20.5 c 17.1,-16.9 19.5,-35 15.8,-46.8 -0.3,-1 -1.2,-1.1 -1.2,0 0.1,9.9 -2.8,18.4 -20.8,36.4 z m -2.8,-24 -11.4,11.5 c -10.4,10.4 -19.1,19.4 -19.1,29.1 v 15.3 c 0,0.9 1.1,0.9 1.2,0 2.6,-12.4 7.5,-17.4 17.8,-27.7 l 16.2,-16.2 c 19.8,-19.8 23.3,-39 13.2,-51.4 -0.7,-0.8 -1.4,-0.3 -1,0.7 6.7,15.1 -9.3,31.1 -16.9,38.7 z m 83.5,68.2 h 1.1 l 1.7,3 h 1.5 l -2,-3.3 c 0.82698,-0.30702 1.35515,-1.11959 1.3,-2 0,-1.5 -0.8,-2.2 -2.7,-2.2 h -2.2 v 7.5 h 1.3 z m 0,-3.5 h 0.8 c 1,0 1.4,0.3 1.4,1.2 0,0.7 -0.5,1.2 -1.4,1.2 h -0.9 v -2.4 z m 1,9 c 5.61309,0 8.42312,-6.78597 4.45455,-10.75455 -3.96858,-3.96857 -10.75455,-1.15854 -10.75455,4.45455 -0.12396,3.52946 2.77054,6.42396 6.3,6.3 z m 0,-11.7 c 2.98234,0 5.4,2.41766 5.4,5.4 0,2.98234 -2.41766,5.4 -5.4,5.4 -3.00097,0.0455 -5.44548,-2.39903 -5.4,-5.4 -0.0814,-3.01541 2.38459,-5.48139 5.4,-5.4 z"
     id="path883"
     inkscape:connector-curvature="0"
     style="fill:#ffffff"
     sodipodi:nodetypes="csssscccccscccccscssccsssccccccccccccccccsccccccccccscsccccccsssccscccccsccccccccccccsscssccccacscsscccccsssccccscccsccc" />
  <g
     id="g914"
     transform="translate(-0.02255084,15.378706)">
    <text
       id="text897"
       y="66.689255"
       x="275.3912"
       style="font-style:normal;font-weight:normal;font-size:40px;line-height:1.25;font-family:sans-serif;letter-spacing:0px;word-spacing:0px;fill:#ffffff;fill-opacity:1;stroke:none"
       xml:space="preserve"><tspan
         style="font-style:normal;font-variant:normal;font-weight:normal;font-stretch:normal;font-size:74.66666412px;line-height:1;font-family:'Advent Sans';-inkscape-font-specification:'Advent Sans';fill:#ffffff"
         y="66.689255"
         x="275.3912"
         id="tspan895"
         sodipodi:role="line">Kościół Adwentystów</tspan><tspan
         style="font-style:normal;font-variant:normal;font-weight:normal;font-stretch:normal;font-size:74.66666412px;line-height:1;font-family:'Advent Sans';-inkscape-font-specification:'Advent Sans';fill:#ffffff"
         id="tspan899"
         y="141.35593"
         x="275.3912"
         sodipodi:role="line">Dnia Siódmego</tspan></text>
    <text
       id="text905"
       y="186.69565"
       x="279.82471"
       style="font-style:normal;font-weight:normal;font-size:40px;line-height:1.25;font-family:sans-serif;letter-spacing:0px;word-spacing:0px;fill:#ffffff;fill-opacity:1;stroke:none"
       xml:space="preserve"><tspan
         style="font-size:48px;fill:#ffffff"
         y="186.69565"
         x="279.82471"
         id="tspan903"
         sodipodi:role="line">zbór w Sosnowcu</tspan></text>
  </g>
</svg>
