<?xml version="1.0" encoding="UTF-8" standalone="no"?>
<svg
   xmlns:dc="http://purl.org/dc/elements/1.1/"
   xmlns:cc="http://creativecommons.org/ns#"
   xmlns:rdf="http://www.w3.org/1999/02/22-rdf-syntax-ns#"
   xmlns:svg="http://www.w3.org/2000/svg"
   xmlns="http://www.w3.org/2000/svg"
   xmlns:sodipodi="http://sodipodi.sourceforge.net/DTD/sodipodi-0.dtd"
   xmlns:inkscape="http://www.inkscape.org/namespaces/inkscape"
   viewBox="0 0 1054.74 227.62735"
   version="1.1"
   id="svg885"
   width="1054.7401"
   height="227.62701"
   sodipodi:docname="wide.svg"
   inkscape:version="0.92.3 (2405546, 2018-03-11)">
  <metadata
     id="metadata15">
    <rdf:RDF>
      <cc:Work
         rdf:about="">
        <dc:format>image/svg+xml</dc:format>
        <dc:type
           rdf:resource="http://purl.org/dc/dcmitype/StillImage" />
        <dc:title>Seventh-day Adventist Church</dc:title>
      </cc:Work>
    </rdf:RDF>
  </metadata>
  <defs
     id="defs13" />
  <sodipodi:namedview
     pagecolor="#ffffff"
     bordercolor="#666666"
     borderopacity="1"
     objecttolerance="10"
     gridtolerance="10"
     guidetolerance="10"
     inkscape:pageopacity="0"
     inkscape:pageshadow="2"
     inkscape:window-width="2560"
     inkscape:window-height="1376"
     id="namedview11"
     showgrid="false"
     fit-margin-top="0"
     fit-margin-left="0"
     fit-margin-right="0"
     fit-margin-bottom="0"
     inkscape:zoom="0.36680533"
     inkscape:cx="496.17567"
     inkscape:cy="113.81351"
     inkscape:window-x="0"
     inkscape:window-y="27"
     inkscape:window-maximized="1"
     inkscape:current-layer="svg885" />
  <title
     id="title881">Seventh-day Adventist Church</title>
  <path
     d="m 67.676676,120.375 c -0.1,-9.9 2.8,-18.4 20.8,-36.4 l 39.000004,-39 c 10.4,-10.4 19.1,-19.3 19.1,-29 v -15.3 c 0,-0.9 -1.1,-0.9 -1.2,0 -2.6,12.4 -7.5,17.3 -17.8,27.6 l -45.300004,45.2 c -17.1,17 -19.5,35.1 -15.8,46.9 0.3,1 1.2,1.1 1.2,0 z m 64.200004,38.9 c 0,0.9 1,0.9 1.2,0 2.6,-12.5 7.6,-17.4 17.8,-27.6 l 15.1,-14.9 c 19.8,-19.9 10.7,-39 -0.9,-44.3 -1,-0.5 -1.4,0.3 -0.6,1 9.3,8 6.5,21.5 -5.2,33.2 l -8.3,8.3 c -10.4,10.3 -19.1,19.2 -19.1,29 z m 81.8,26.6 -45.7,-7.7 -17.1,17.1 c -10.4,10.4 -19,19.3 -19,29 v 2.7 c 0,0.7 0.9,0.9 1.2,0.1 3.2,-8.7 13.9,-18.1 33.5,-14.8 0,0 85.4,14.8 86.1,14.8 a 0.89,0.89 0 0 0 1,-0.6 0.78,0.78 0 0 0 -0.2,-0.8 c -0.3,-0.4 -39.8,-39.8 -39.8,-39.8 z m -107.5,1 h 15 a 0.65,0.65 0 0 0 0.6,-0.6 c 0,-7.9 -6,-13.3 -30.000004,-9.2 l -51.8,8.9 c 0,0 -39.40000002,39.4 -39.70000002,39.8 a 0.79,0.79 0 0 0 -0.1,1.1 0.78,0.78 0 0 0 0.8,0.2 c 0.70000002,-0.1 86.10000002,-14.8 86.10000002,-14.8 19.600004,-3.3 30.300004,6 33.500004,14.8 0.3,0.8 1.2,0.7 1.2,-0.1 v -29.5 a 0.65,0.65 0 0 0 -0.6,-0.6 l -15,0.1 a 0.65,0.65 0 0 1 -0.6,-0.6 v -8.9 a 0.65,0.65 0 0 1 0.6,-0.6 z m 26.8,25.9 a 36.27,36.27 0 0 1 6.9,-15.8 h -7.5 a 0.65,0.65 0 0 0 -0.6,0.6 v 15.2 c 0,0.9 1.1,0.9 1.2,0 z m 13.6,-158.6 c 0,-0.9 -1.1,-0.9 -1.2,0 -2.6,12.4 -7.5,17.3 -17.8,27.6 l -39.800004,39.7 c -19.8,19.8 -10.7,39 0.9,44.3 1,0.5 1.4,-0.4 0.6,-1 -9.3,-8 -6.5,-21.6 5.2,-33.2 l 33.000004,-33 c 10.4,-10.4 19.1,-19.3 19.1,-29 z m -19.1,17.5 c 10.4,-10.3 19,-19.2 19.1,-29 v -15.4 c 0,-0.9 -1.1,-0.9 -1.2,0 -2.6,12.4 -7.5,17.4 -17.8,27.7 l -40.900004,40.8 c -19.8,19.8 -23.3,39 -13.2,51.4 0.7,0.8 1.4,0.3 1,-0.7 -6.7,-15.1 9.3,-31.1 16.9,-38.7 z m 37.6,82.5 -14.3,14.2 c -6.5,6.5 -12.3,12.4 -15.8,18.4 h 14.1 l 1.7,-1.7 20.5,-20.5 c 17.1,-16.9 19.5,-35 15.8,-46.8 -0.3,-1 -1.2,-1.1 -1.2,0 0.1,9.9 -2.8,18.4 -20.8,36.4 z m -2.8,-24 -11.4,11.5 c -10.4,10.4 -19.1,19.4 -19.1,29.1 v 15.3 c 0,0.9 1.1,0.9 1.2,0 2.6,-12.4 7.5,-17.4 17.8,-27.7 l 16.2,-16.2 c 19.8,-19.8 23.3,-39 13.2,-51.4 -0.7,-0.8 -1.4,-0.3 -1,0.7 6.7,15.1 -9.3,31.1 -16.9,38.7 z m 83.5,68.2 h 1.1 l 1.7,3 h 1.5 l -2,-3.3 a 2,2 0 0 0 1.3,-2 c 0,-1.5 -0.8,-2.2 -2.7,-2.2 h -2.2 v 7.5 h 1.3 z m 0,-3.5 h 0.8 c 1,0 1.4,0.3 1.4,1.2 0,0.7 -0.5,1.2 -1.4,1.2 h -0.9 v -2.4 z m 1,9 c 5.614,0 8.424,-6.786 4.455,-10.755 -3.969,-3.968 -10.755,-1.158 -10.755,4.455 a 6.09,6.09 0 0 0 6.3,6.3 z m 0,-11.7 a 5.4,5.4 0 1 1 0,10.8 5.32,5.32 0 0 1 -5.4,-5.4 5.26,5.26 0 0 1 5.4,-5.4 z"
     id="path883"
     inkscape:connector-curvature="0"
     style="fill:#ffffff" />
  <g
     id="g914"
     transform="translate(-0.02332402,15.379)"
     font-style="normal"
     font-weight="400"
     font-size="40"
     letter-spacing="0"
     word-spacing="0"
     style="font-style:normal;font-weight:400;font-size:40px;font-family:sans-serif;letter-spacing:0;word-spacing:0;fill:#ffffff;fill-opacity:1;stroke:none">
    <text
       id="text897"
       y="66.689003"
       x="275.39099"
       style="line-height:1.25"
       xml:space="preserve"><tspan
         style="font-style:normal;font-variant:normal;font-weight:400;font-stretch:normal;font-size:74.66699982px;line-height:1;font-family:'Advent Sans';-inkscape-font-specification:'Advent Sans';fill:#ffffff"
         y="66.689003"
         x="275.39099"
         id="tspan895"
         font-style="normal"
         font-variant="normal"
         font-weight="400"
         font-stretch="normal"
         font-size="74.667">Kościół Adwentystów</tspan><tspan
         style="font-style:normal;font-variant:normal;font-weight:400;font-stretch:normal;font-size:74.66699982px;line-height:1;font-family:'Advent Sans';-inkscape-font-specification:'Advent Sans';fill:#ffffff"
         id="tspan899"
         y="141.356"
         x="275.39099"
         font-style="normal"
         font-variant="normal"
         font-weight="400"
         font-stretch="normal"
         font-size="74.667">Dnia Siódmego</tspan></text>
    <text
       id="text905"
       y="186.696"
       x="279.82501"
       style="line-height:1.25"
       xml:space="preserve"><tspan
         y="186.696"
         x="279.82501"
         id="tspan903"
         font-size="48"
         style="font-size:48px;fill:#ffffff">zbór w Sosnowcu</tspan></text>
  </g>
</svg>
